<?xml version="1.0" encoding="UTF-8"?>
<svg width="28px" height="27px" viewBox="0 0 28 27" version="1.1" xmlns="http://www.w3.org/2000/svg" xmlns:xlink="http://www.w3.org/1999/xlink">
    <!-- Generator: Sketch 52.6 (67491) - http://www.bohemiancoding.com/sketch -->
    <title>GoForward Logo</title>
    <desc>Created with Sketch.</desc>
    <g id="Homepage" stroke="none" stroke-width="1" fill="none" fill-rule="evenodd">
        <g id="1-1-1-Homepage" transform="translate(-93.000000, -46.000000)" fill="#FFFFFF">
            <g id="HEADER">
                <g id="GoForward-Logo" transform="translate(93.000000, 46.000000)">
                    <g id="Group-10">
                        <path d="M13.659619,25.2947368 C20.1315703,25.2947368 25.4432606,20.0140533 25.4432606,13.5798817 C25.4432606,7.00764568 20.1531652,1.70526316 13.659619,1.70526316 C7.02696627,1.70526316 1.71527599,6.98594671 1.71527599,13.5798817 C1.71527599,20.0355221 7.04879265,25.2947368 13.659619,25.2947368 Z M13.659619,27 C6.0796455,27 0,20.9558441 0,13.5798817 C0,6.04415588 6.0796455,0 13.659619,0 C21.0788911,0 27.1585366,6.04415588 27.1585366,13.5798817 C27.1585366,20.9558441 21.0788911,27 13.659619,27 Z" id="Combined-Shape" fill-rule="nonzero"></path>
                        <path d="M13.1453877,9.94250563 L13.1453877,9.94250563 C13.4232638,9.94250563 13.6931604,10.0354237 13.9121466,10.2064798 L17.1312093,12.7209789 C17.4079094,12.9371171 17.7769891,12.9940834 18.1059804,12.8714318 L19.6543313,12.2941965 C19.7853486,12.2453518 19.9320178,12.2641735 20.0464567,12.3445171 C21.0595461,13.0557717 21.7335633,13.536986 22.0685081,13.7881599 C22.7584395,14.3055371 23.3575577,14.7371958 23.8658627,15.0831358 C23.8570491,14.8927251 23.8570491,14.6949712 23.8658627,14.4898741 C24.1404016,8.10120741 19.0971679,3.46626465 13.431267,3.54776879 C7.77168099,3.6314461 3.19711571,7.99002652 3.28897186,14.0469747 C3.29471777,14.3870835 3.32458993,14.7324706 3.37858833,15.0831358 L4.8199897,14.0469747 L6.58656074,12.8243719 C6.82002166,12.662799 7.12653225,12.6531466 7.36969678,12.7997099 L8.10174621,13.2409404 C8.25638788,13.3341481 8.45263698,13.3215992 8.59414763,13.2094544 L12.3804885,10.2088435 C12.5981337,10.0363634 12.867685,9.94250563 13.1453877,9.94250563 Z" id="Oval-3"></path>
                        <path d="M12.5826689,25.9702688 C14.2558587,26.1571983 15.6345951,25.8772124 16.113516,25.7455232 C16.3319122,25.6854707 17.1482212,25.4930579 17.3406474,25.4307823 C17.9852164,25.2221781 18.9687835,24.7801303 19.5292017,24.4579718 C20.3678555,23.9758686 20.9600036,23.4680189 21.7801525,22.7554842 C23.6009581,21.1735917 24.8346503,18.2448216 24.8346503,17.9459704 C24.8346503,17.8947783 23.3741164,16.8129893 20.4530486,14.7006033 L20.4530468,14.7006057 C20.3018769,14.5912863 20.093912,14.6068863 19.9607427,14.7375347 L19.9607427,14.7375347 C19.8275615,14.8681947 19.8075372,15.0756641 19.9132711,15.2293834 C20.6092121,16.2411868 20.9711516,16.7878803 20.9990793,16.8694708 C21.1312881,17.2557172 20.9431032,17.4738042 20.7549373,17.3577046 C20.6294933,17.2803048 19.1643074,16.3315255 16.3593797,14.5113667 L13.8237854,12.8224676 C13.6087952,12.6792678 13.3184247,12.7374653 13.1752248,12.9524556 C13.1240714,13.0292538 13.0967771,13.119467 13.0967771,13.2117419 C13.0400144,14.0040633 13.0116331,14.6588255 13.0116331,15.1760286 C13.0116331,15.4908436 12.9779924,15.8729887 12.5826689,15.9720395 C12.4506311,16.0051224 12.2175632,16.0313739 11.883465,16.0507941 L7.61664919,15.7402258 C7.45107157,15.7281739 7.30707441,15.8526311 7.29502253,16.0182087 C7.28862906,16.1060469 7.32107817,16.1922703 7.38379693,16.254099 C11.1356877,18.6934339 13.0116331,20.0123946 13.0116331,20.2109812 C13.0116331,20.8440318 10.9858061,19.829644 9.39605812,19.0856496 C7.94505154,18.4065855 6.40342753,17.7660281 4.77118607,17.1639776 L4.77122399,17.1638748 C4.69406373,17.1354143 4.60834027,17.14192 4.53635889,17.1816992 C3.11580944,17.9667401 2.4107964,18.3742187 2.42131978,18.404135 C2.96740036,19.9565545 4.41585153,22.2299577 6.61033141,23.7439762 C7.48779127,24.3493544 8.49992615,24.9147811 9.48538691,25.2660567 C10.6122835,25.6677484 11.7937788,25.9702688 12.5826689,25.9702688 Z" id="Oval-4"></path>
                    </g>
                </g>
            </g>
        </g>
    </g>
</svg>